<svg width="555" height="162" viewBox="0 0 555 162" fill="none" xmlns="http://www.w3.org/2000/svg">
<path d="M212.612 107.762C207.834 107.762 203.743 106.975 200.338 105.399C196.984 103.773 194.366 101.435 192.486 98.3854C190.656 95.2852 189.665 91.5496 189.512 87.1788C189.462 84.9934 189.436 82.6555 189.436 80.1652C189.436 77.6748 189.462 75.3115 189.512 73.0753C189.665 68.8061 190.656 65.1722 192.486 62.1736C194.366 59.1751 197.009 56.888 200.414 55.3125C203.87 53.6861 207.936 52.8729 212.612 52.8729C216.373 52.8729 219.676 53.3558 222.522 54.3214C225.368 55.2871 227.757 56.5576 229.688 58.1332C231.62 59.6579 233.094 61.3351 234.11 63.1647C235.127 64.9943 235.66 66.7478 235.711 68.4249C235.711 68.8823 235.559 69.2889 235.254 69.6447C234.949 69.9496 234.542 70.1021 234.034 70.1021H224.581C224.072 70.1021 223.666 70.0005 223.361 69.7972C223.107 69.5939 222.878 69.2889 222.675 68.8824C222.319 67.9675 221.735 67.0527 220.921 66.1379C220.159 65.1722 219.117 64.3591 217.796 63.6983C216.474 63.0376 214.746 62.7073 212.612 62.7073C209.41 62.7073 206.869 63.5459 204.988 65.2231C203.159 66.9002 202.168 69.6447 202.015 73.4565C201.863 77.8273 201.863 82.2744 202.015 86.7976C202.168 90.7619 203.184 93.608 205.064 95.336C206.996 97.064 209.562 97.928 212.764 97.928C214.848 97.928 216.703 97.5722 218.329 96.8607C220.007 96.0984 221.328 94.9294 222.294 93.3539C223.259 91.7784 223.742 89.7708 223.742 87.3313V85.4254H215.432C214.924 85.4254 214.492 85.2475 214.136 84.8918C213.781 84.4852 213.603 84.0278 213.603 83.5195V78.6405C213.603 78.0814 213.781 77.624 214.136 77.2682C214.492 76.9125 214.924 76.7346 215.432 76.7346H234.11C234.669 76.7346 235.127 76.9125 235.482 77.2682C235.838 77.624 236.016 78.0814 236.016 78.6405V86.9501C236.016 91.3209 235.05 95.0565 233.119 98.1567C231.239 101.257 228.52 103.646 224.962 105.323C221.455 106.949 217.338 107.762 212.612 107.762ZM246.305 107C245.797 107 245.365 106.822 245.009 106.466C244.653 106.111 244.475 105.653 244.475 105.094V69.2635C244.475 68.7553 244.653 68.3233 245.009 67.9675C245.365 67.5609 245.797 67.3576 246.305 67.3576H253.776C254.284 67.3576 254.716 67.5609 255.072 67.9675C255.478 68.3233 255.682 68.7553 255.682 69.2635V72.3129C256.952 70.7374 258.502 69.5176 260.332 68.6536C262.213 67.7896 264.373 67.3576 266.812 67.3576H270.09C270.598 67.3576 271.03 67.5355 271.386 67.8913C271.742 68.2471 271.92 68.7045 271.92 69.2635V75.8198C271.92 76.3788 271.742 76.8362 271.386 77.192C271.03 77.5478 270.598 77.7256 270.09 77.7256H263.381C261.145 77.7256 259.392 78.3609 258.121 79.6315C256.851 80.8513 256.215 82.6047 256.215 84.8918V105.094C256.215 105.653 256.037 106.111 255.682 106.466C255.326 106.822 254.869 107 254.309 107H246.305ZM288.599 107.762C285.905 107.762 283.491 107.254 281.356 106.238C279.222 105.17 277.519 103.747 276.249 101.968C274.978 100.19 274.343 98.2075 274.343 96.0221C274.343 92.4136 275.791 89.5675 278.688 87.4838C281.636 85.4 285.498 83.9769 290.276 83.2146L300.263 81.7661V80.3939C300.263 78.4118 299.805 76.8871 298.89 75.8198C297.976 74.7525 296.375 74.2188 294.088 74.2188C292.41 74.2188 291.064 74.5492 290.047 75.2099C289.031 75.8706 288.243 76.7346 287.684 77.8019C287.277 78.4626 286.693 78.7929 285.93 78.7929H278.688C278.129 78.7929 277.697 78.6405 277.392 78.3355C277.087 77.9798 276.96 77.5732 277.011 77.1158C277.011 76.2518 277.341 75.2353 278.002 74.0664C278.663 72.8974 279.679 71.7539 281.051 70.6358C282.424 69.4668 284.177 68.5012 286.312 67.7388C288.446 66.9765 291.064 66.5953 294.164 66.5953C297.366 66.5953 300.11 66.9765 302.397 67.7388C304.684 68.5012 306.514 69.5685 307.886 70.9407C309.258 72.3129 310.275 73.9139 310.936 75.7435C311.596 77.5223 311.927 79.4536 311.927 81.5374V105.094C311.927 105.653 311.749 106.111 311.393 106.466C311.037 106.822 310.58 107 310.021 107H302.55C302.042 107 301.61 106.822 301.254 106.466C300.898 106.111 300.72 105.653 300.72 105.094V102.273C300.059 103.239 299.17 104.154 298.052 105.018C296.934 105.831 295.587 106.492 294.011 107C292.487 107.508 290.682 107.762 288.599 107.762ZM291.648 99.8339C293.325 99.8339 294.825 99.4781 296.146 98.7666C297.467 98.0551 298.509 96.9624 299.272 95.4885C300.034 94.0146 300.415 92.1595 300.415 89.9233V88.6273L293.325 89.7708C290.581 90.2282 288.573 90.9144 287.303 91.8292C286.032 92.744 285.397 93.8621 285.397 95.1835C285.397 96.1492 285.676 96.9878 286.235 97.6993C286.845 98.4108 287.633 98.9445 288.599 99.3002C289.564 99.656 290.581 99.8339 291.648 99.8339ZM323.063 121.485C322.504 121.485 322.047 121.307 321.691 120.951C321.335 120.595 321.157 120.138 321.157 119.579V69.2635C321.157 68.7045 321.335 68.2471 321.691 67.8913C322.047 67.5355 322.504 67.3576 323.063 67.3576H330.305C330.864 67.3576 331.322 67.5355 331.678 67.8913C332.033 68.2471 332.211 68.7045 332.211 69.2635V72.1605C333.431 70.5341 335.007 69.2127 336.938 68.1962C338.869 67.1289 341.283 66.5953 344.18 66.5953C346.823 66.5953 349.11 67.0273 351.041 67.8913C353.023 68.7045 354.675 69.8988 355.997 71.4743C357.369 72.9991 358.411 74.8541 359.122 77.0395C359.885 79.2249 360.317 81.6899 360.418 84.4344C360.469 85.4 360.495 86.3148 360.495 87.1788C360.495 88.0428 360.469 88.9831 360.418 89.9995C360.367 92.5915 359.961 94.9802 359.199 97.1656C358.487 99.3511 357.445 101.232 356.073 102.807C354.701 104.383 353.023 105.602 351.041 106.466C349.11 107.33 346.823 107.762 344.18 107.762C341.588 107.762 339.327 107.305 337.395 106.39C335.515 105.424 333.965 104.128 332.745 102.502V119.579C332.745 120.138 332.567 120.595 332.211 120.951C331.855 121.307 331.423 121.485 330.915 121.485H323.063ZM340.75 98.6141C342.681 98.6141 344.206 98.2075 345.324 97.3944C346.442 96.5304 347.23 95.4122 347.687 94.04C348.195 92.6678 348.5 91.1685 348.602 89.5421C348.703 87.9666 348.703 86.3911 348.602 84.8155C348.5 83.1892 348.195 81.6899 347.687 80.3176C347.23 78.9454 346.442 77.8527 345.324 77.0395C344.206 76.1755 342.681 75.7435 340.75 75.7435C338.869 75.7435 337.344 76.1755 336.175 77.0395C335.007 77.9035 334.168 78.9962 333.66 80.3176C333.151 81.6391 332.847 83.0621 332.745 84.5868C332.694 85.5016 332.669 86.4419 332.669 87.4075C332.669 88.3732 332.694 89.3388 332.745 90.3045C332.796 91.7275 333.101 93.0744 333.66 94.3449C334.27 95.5647 335.134 96.5812 336.252 97.3944C337.421 98.2075 338.92 98.6141 340.75 98.6141ZM370.487 107C369.928 107 369.47 106.822 369.114 106.466C368.759 106.111 368.581 105.653 368.581 105.094V54.7788C368.581 54.2198 368.759 53.7623 369.114 53.4066C369.47 53.0508 369.928 52.8729 370.487 52.8729H378.72C379.228 52.8729 379.66 53.0508 380.016 53.4066C380.372 53.7623 380.55 54.2198 380.55 54.7788V71.9318C381.922 70.3054 383.599 69.0094 385.581 68.0438C387.563 67.0781 389.952 66.5953 392.747 66.5953C395.746 66.5953 398.389 67.2814 400.676 68.6536C403.014 69.9751 404.843 71.9318 406.165 74.5238C407.486 77.0649 408.147 80.1652 408.147 83.8245V105.094C408.147 105.653 407.969 106.111 407.613 106.466C407.258 106.822 406.8 107 406.241 107H397.931C397.423 107 396.991 106.822 396.635 106.466C396.28 106.111 396.102 105.653 396.102 105.094V84.2819C396.102 81.5882 395.441 79.5045 394.12 78.0306C392.798 76.5059 390.918 75.7435 388.478 75.7435C386.09 75.7435 384.158 76.5059 382.684 78.0306C381.261 79.5045 380.55 81.5882 380.55 84.2819V105.094C380.55 105.653 380.372 106.111 380.016 106.466C379.66 106.822 379.228 107 378.72 107H370.487ZM439.302 107.762C434.677 107.762 430.688 107 427.333 105.475C423.979 103.951 421.361 101.664 419.481 98.6141C417.601 95.5139 416.584 91.6259 416.432 86.9501C416.381 84.7647 416.355 82.6047 416.355 80.4701C416.355 78.2847 416.381 76.0739 416.432 73.8376C416.584 69.2635 417.601 65.4263 419.481 62.3261C421.412 59.1751 424.055 56.8118 427.409 55.2362C430.815 53.6607 434.779 52.8729 439.302 52.8729C443.775 52.8729 447.688 53.6607 451.042 55.2362C454.448 56.8118 457.116 59.1751 459.047 62.3261C460.978 65.4263 461.995 69.2635 462.097 73.8376C462.198 76.0739 462.249 78.2847 462.249 80.4701C462.249 82.6047 462.198 84.7647 462.097 86.9501C461.944 91.6259 460.928 95.5139 459.047 98.6141C457.167 101.664 454.549 103.951 451.195 105.475C447.841 107 443.876 107.762 439.302 107.762ZM439.302 97.928C442.25 97.928 444.664 97.0386 446.545 95.2598C448.476 93.4301 449.492 90.5332 449.594 86.5689C449.696 84.3327 449.746 82.2489 449.746 80.3176C449.746 78.3355 449.696 76.2518 449.594 74.0664C449.543 71.4235 449.06 69.2635 448.145 67.5863C447.231 65.9092 446.011 64.6894 444.486 63.9271C443.012 63.1139 441.284 62.7073 439.302 62.7073C437.32 62.7073 435.567 63.1139 434.042 63.9271C432.517 64.6894 431.297 65.9092 430.383 67.5863C429.519 69.2635 429.036 71.4235 428.934 74.0664C428.883 76.2518 428.858 78.3355 428.858 80.3176C428.858 82.2489 428.883 84.3327 428.934 86.5689C429.087 90.5332 430.103 93.4301 431.984 95.2598C433.864 97.0386 436.304 97.928 439.302 97.928ZM472.779 121.485C472.22 121.485 471.763 121.307 471.407 120.951C471.051 120.595 470.873 120.138 470.873 119.579V69.2635C470.873 68.7045 471.051 68.2471 471.407 67.8913C471.763 67.5355 472.22 67.3576 472.779 67.3576H480.021C480.58 67.3576 481.038 67.5355 481.394 67.8913C481.749 68.2471 481.927 68.7045 481.927 69.2635V72.1605C483.147 70.5341 484.723 69.2127 486.654 68.1962C488.585 67.1289 490.999 66.5953 493.896 66.5953C496.539 66.5953 498.826 67.0273 500.757 67.8913C502.739 68.7045 504.391 69.8988 505.713 71.4743C507.085 72.9991 508.127 74.8541 508.838 77.0395C509.601 79.2249 510.033 81.6899 510.134 84.4344C510.185 85.4 510.211 86.3148 510.211 87.1788C510.211 88.0428 510.185 88.9831 510.134 89.9995C510.083 92.5915 509.677 94.9802 508.915 97.1656C508.203 99.3511 507.161 101.232 505.789 102.807C504.417 104.383 502.739 105.602 500.757 106.466C498.826 107.33 496.539 107.762 493.896 107.762C491.304 107.762 489.043 107.305 487.111 106.39C485.231 105.424 483.681 104.128 482.461 102.502V119.579C482.461 120.138 482.283 120.595 481.927 120.951C481.571 121.307 481.139 121.485 480.631 121.485H472.779ZM490.466 98.6141C492.397 98.6141 493.922 98.2075 495.04 97.3944C496.158 96.5304 496.946 95.4122 497.403 94.04C497.911 92.6678 498.216 91.1685 498.318 89.5421C498.419 87.9666 498.419 86.3911 498.318 84.8155C498.216 83.1892 497.911 81.6899 497.403 80.3176C496.946 78.9454 496.158 77.8527 495.04 77.0395C493.922 76.1755 492.397 75.7435 490.466 75.7435C488.585 75.7435 487.06 76.1755 485.891 77.0395C484.723 77.9035 483.884 78.9962 483.376 80.3176C482.867 81.6391 482.563 83.0621 482.461 84.5868C482.41 85.5016 482.385 86.4419 482.385 87.4075C482.385 88.3732 482.41 89.3388 482.461 90.3045C482.512 91.7275 482.817 93.0744 483.376 94.3449C483.986 95.5647 484.85 96.5812 485.968 97.3944C487.137 98.2075 488.636 98.6141 490.466 98.6141ZM533.925 107.762C530.774 107.762 528.055 107.407 525.768 106.695C523.532 105.933 521.702 105.018 520.279 103.951C518.907 102.883 517.865 101.816 517.153 100.749C516.493 99.6306 516.137 98.6904 516.086 97.928C516.035 97.3689 516.213 96.9115 516.62 96.5558C517.026 96.2 517.433 96.0221 517.839 96.0221H525.234C525.387 96.0221 525.539 96.0475 525.692 96.0984C525.844 96.1492 525.997 96.2762 526.149 96.4795C526.81 96.9369 527.496 97.4706 528.207 98.0805C528.919 98.6395 529.732 99.1224 530.647 99.5289C531.613 99.9355 532.807 100.139 534.23 100.139C535.907 100.139 537.33 99.8085 538.499 99.1478C539.668 98.4362 540.253 97.4452 540.253 96.1746C540.253 95.2598 539.973 94.4974 539.414 93.8875C538.906 93.2776 537.915 92.7186 536.441 92.2104C534.967 91.7021 532.782 91.1431 529.885 90.5332C527.14 89.9233 524.802 89.1101 522.871 88.0936C520.94 87.0772 519.491 85.8066 518.526 84.2819C517.56 82.7064 517.077 80.8259 517.077 78.6405C517.077 76.6584 517.687 74.7525 518.907 72.9228C520.177 71.0932 522.032 69.5939 524.472 68.4249C526.911 67.2052 529.961 66.5953 533.62 66.5953C536.415 66.5953 538.855 66.9511 540.939 67.6626C543.073 68.3233 544.852 69.1873 546.275 70.2546C547.698 71.2711 548.766 72.3383 549.477 73.4565C550.239 74.5238 550.646 75.464 550.697 76.2772C550.748 76.7854 550.595 77.2174 550.239 77.5732C549.884 77.9289 549.477 78.1068 549.02 78.1068H542.235C541.981 78.1068 541.752 78.0814 541.549 78.0306C541.345 77.9289 541.167 77.8019 541.015 77.6494C540.405 77.2428 539.77 76.7854 539.109 76.2772C538.499 75.7181 537.762 75.2353 536.898 74.8287C536.034 74.4221 534.916 74.2188 533.544 74.2188C531.867 74.2188 530.571 74.6 529.656 75.3623C528.792 76.0739 528.36 76.9887 528.36 78.1068C528.36 78.8184 528.589 79.4791 529.046 80.0889C529.503 80.6988 530.444 81.2579 531.867 81.7661C533.29 82.2744 535.45 82.808 538.347 83.3671C541.803 83.9769 544.547 84.8918 546.58 86.1115C548.613 87.3313 550.062 88.7544 550.926 90.3807C551.84 91.9562 552.298 93.6588 552.298 95.4885C552.298 97.8772 551.586 100.012 550.163 101.892C548.74 103.722 546.656 105.17 543.912 106.238C541.218 107.254 537.889 107.762 533.925 107.762Z" fill="white"/>
<mask id="mask0_830_26" style="mask-type:luminance" maskUnits="userSpaceOnUse" x="0" y="0" width="161" height="162">
<path d="M160.174 0H0V162H160.174V0Z" fill="white"/>
</mask>
<g mask="url(#mask0_830_26)">
<path d="M127.98 113.452C127.935 122.183 121.519 129.288 112.422 129.523C103.061 129.769 96.1014 136.734 95.9051 146.851C95.7481 154.923 88.4682 161.888 80.5546 161.978C71.9118 162.078 64.8507 155.778 64.2898 147.287C63.8972 140.96 62.3044 135.241 56.3089 132.044C53.766 130.751 50.9937 129.967 48.1485 129.735C38.7037 128.88 32.5848 122.793 32.1137 113.346C31.6426 103.899 25.591 97.7668 16.0284 97.1351C7.85679 96.5762 2.05756 91.7857 0.324522 84.1499C-1.18417 77.442 2.31552 69.8846 8.83824 66.6536C11.0894 65.5674 13.5363 64.9421 16.0341 64.8146C25.0975 64.3506 31.609 58.2185 32.0184 49.1629C32.3549 41.5383 35.7256 36.0938 42.9606 33.3101C44.3713 32.8415 45.8433 32.5816 47.3296 32.5387C57.9242 31.7561 63.6842 25.8643 64.1889 15.2101C64.3912 10.9976 66.2565 7.03565 69.378 4.18842C72.4995 1.34119 76.624 -0.160403 80.8519 0.0111637C88.973 0.363326 95.3555 6.99295 95.9949 15.4225C96.1454 18.095 96.7327 20.7251 97.7335 23.2091C100.257 29.0114 105.086 32.2927 111.311 32.2927C115.728 32.2852 119.967 34.0212 123.102 37.1209C126.238 40.2206 128.014 44.4318 128.042 48.8331C128.16 58.09 135.624 64.876 144.564 64.8704C151.07 64.8704 155.894 68.4591 158.586 74.3061C161.39 80.455 160.392 86.3803 156.09 91.5006C152.052 96.3023 146.634 97.9848 140.498 96.7606C133.768 95.4191 128.518 89.0746 128.16 81.7015C127.84 75.1893 125.54 69.9181 119.618 66.799C117.594 65.677 115.336 65.0397 113.022 64.9375C103.589 64.9375 96.4043 58.0396 95.9051 48.0673C95.3779 37.48 87.4923 31.2362 76.9595 32.7455C69.9937 33.7405 64.6544 39.8446 64.1945 47.5195C63.7851 54.3615 61.3903 60.0408 54.8507 63.0929C52.6491 64.0655 50.2892 64.6336 47.8849 64.7698C39.9264 65.3288 33.5158 70.5162 32.411 77.6265C31.0369 86.397 34.8507 93.3564 42.798 96.3414C44.2922 96.8646 45.8637 97.1348 47.4474 97.1407C56.2528 97.2805 63.7122 103.351 64.2113 114.369C64.5478 121.826 69.2983 127.181 75.9892 129.148C85.4957 131.943 97.3017 124.291 95.922 111.451C95.0583 103.446 88.872 97.7389 80.6219 97.2358C71.2781 96.6768 64.7105 90.6677 64.2394 82.2773C63.7234 73.0708 70.4088 65.2953 79.2478 64.8481C88.2215 64.3897 95.5126 71.2597 95.9893 80.6003C96.3651 88.1746 99.646 93.8204 107.049 96.347C109.64 97.2358 112.562 97.096 115.271 97.6941C118.897 98.4395 122.149 100.42 124.468 103.296C126.787 106.172 128.029 109.763 127.98 113.452Z" fill="white"/>
</g>
</svg>
