<svg width="674" height="180" viewBox="0 0 674 180" fill="none" xmlns="http://www.w3.org/2000/svg">
<path d="M0.76 32.2V0.519998H15.64V32.2H0.76ZM15.1506 32.2V0.519998H30.0306V32.2H15.1506ZM29.5412 32.2V0.519998H44.4213V32.2H29.5412ZM43.9319 32.2V0.519998H58.8119V32.2H43.9319ZM58.3225 32.2V0.519998H73.2025V32.2H58.3225ZM72.7131 32.2V0.519998H87.5931V32.2H72.7131ZM87.1037 32.2V0.519998H101.984V32.2H87.1037ZM110.134 32.2V14.92H101.254V12.52H112.534V32.2H110.134ZM105.334 32.2V19.72H101.254V17.32H107.734V32.2H105.334ZM115.885 32.2V0.519998H130.765V32.2H115.885ZM130.276 32.2V0.519998H145.156V32.2H130.276ZM153.306 32.2V14.92H144.426V12.52H155.706V32.2H153.306ZM148.506 32.2V19.72H144.426V17.32H150.906V32.2H148.506ZM187.838 32.2V0.519998H202.718V32.2H187.838ZM202.229 32.2V0.519998H217.109V32.2H202.229ZM225.259 32.2V14.92H216.379V12.52H227.659V32.2H225.259ZM220.459 32.2V19.72H216.379V17.32H222.859V32.2H220.459ZM231.01 32.2V0.519998H245.89V32.2H231.01ZM245.401 32.2V0.519998H260.281V32.2H245.401ZM268.431 32.2V14.92H259.551V12.52H270.831V32.2H268.431ZM263.631 32.2V19.72H259.551V17.32H266.031V32.2H263.631ZM274.182 32.2V0.519998H289.062V32.2H274.182ZM288.572 32.2V0.519998H303.453V32.2H288.572ZM302.963 32.2V0.519998H317.843V32.2H302.963ZM317.354 32.2V0.519998H332.234V32.2H317.354ZM331.744 32.2V0.519998H346.624V32.2H331.744ZM346.135 32.2V0.519998H361.015V32.2H346.135ZM369.166 32.2V14.92H360.286V12.52H371.566V32.2H369.166ZM364.366 32.2V19.72H360.286V17.32H366.766V32.2H364.366ZM446.869 32.2V0.519998H461.749V32.2H446.869ZM461.26 32.2V0.519998H476.14V32.2H461.26ZM475.651 32.2V0.519998H490.531V32.2H475.651ZM490.041 32.2V0.519998H504.921V32.2H490.041ZM504.432 32.2V0.519998H519.312V32.2H504.432ZM518.822 32.2V0.519998H533.703V32.2H518.822ZM541.853 32.2V14.92H532.973V12.52H544.253V32.2H541.853ZM537.053 32.2V19.72H532.973V17.32H539.453V32.2H537.053ZM576.385 32.2V0.519998H591.265V32.2H576.385ZM590.776 32.2V0.519998H605.656V32.2H590.776ZM605.166 32.2V0.519998H620.046V32.2H605.166ZM619.557 32.2V0.519998H634.437V32.2H619.557ZM633.947 32.2V0.519998H648.828V32.2H633.947ZM656.978 32.2V14.92H648.098V12.52H659.378V32.2H656.978ZM652.178 32.2V19.72H648.098V17.32H654.578V32.2H652.178ZM0.76 64.2V32.52H15.64V64.2H0.76ZM15.1506 64.2V32.52H30.0306V64.2H15.1506ZM33.3813 64.2V44.52H44.6613V46.92H35.7812V64.2H33.3813ZM38.1813 64.2V49.32H44.6613V51.72H40.5813V64.2H38.1813ZM43.6919 46.92V44.52H59.0519V46.92H43.6919ZM43.6919 51.72V49.32H59.0519V51.72H43.6919ZM58.0825 46.92V44.52H73.4425V46.92H58.0825ZM58.0825 51.72V49.32H73.4425V51.72H58.0825ZM72.4731 46.92V44.52H87.8331V46.92H72.4731ZM72.4731 51.72V49.32H87.8331V51.72H72.4731ZM86.8637 46.92V44.52H102.224V46.92H86.8637ZM86.8637 51.72V49.32H102.224V51.72H86.8637ZM101.254 51.72V49.32H110.134V32.52H112.534V51.72H101.254ZM101.254 46.92V44.52H105.334V32.52H107.734V46.92H101.254ZM115.885 64.2V32.52H130.765V64.2H115.885ZM130.276 64.2V32.52H145.156V64.2H130.276ZM153.306 64.2V32.52H155.706V64.2H153.306ZM148.506 64.2V32.52H150.906V64.2H148.506ZM187.838 64.2V32.52H202.718V64.2H187.838ZM202.229 64.2V32.52H217.109V64.2H202.229ZM225.259 64.2V32.52H227.659V64.2H225.259ZM220.459 64.2V32.52H222.859V64.2H220.459ZM231.01 64.2V32.52H245.89V64.2H231.01ZM245.401 64.2V32.52H260.281V64.2H245.401ZM268.431 64.2V32.52H270.831V64.2H268.431ZM263.631 64.2V32.52H266.031V64.2H263.631ZM274.182 64.2V32.52H289.062V64.2H274.182ZM288.572 64.2V32.52H303.453V64.2H288.572ZM306.803 64.2V44.52H318.083V46.92H309.203V64.2H306.803ZM311.603 64.2V49.32H318.083V51.72H314.003V64.2H311.603ZM317.114 46.92V44.52H332.474V46.92H317.114ZM317.114 51.72V49.32H332.474V51.72H317.114ZM331.504 46.92V44.52H346.864V46.92H331.504ZM331.504 51.72V49.32H346.864V51.72H331.504ZM346.135 64.2V32.52H361.015V64.2H346.135ZM360.526 64.2V32.52H375.406V64.2H360.526ZM383.556 64.2V46.92H374.676V44.52H385.956V64.2H383.556ZM378.756 64.2V51.72H374.676V49.32H381.156V64.2H378.756ZM446.869 64.2V32.52H461.749V64.2H446.869ZM461.26 64.2V32.52H476.14V64.2H461.26ZM479.491 64.2V44.52H490.771V46.92H481.891V64.2H479.491ZM484.291 64.2V49.32H490.771V51.72H486.691V64.2H484.291ZM489.801 46.92V44.52H505.161V46.92H489.801ZM489.801 51.72V49.32H505.161V51.72H489.801ZM504.192 46.92V44.52H519.552V46.92H504.192ZM504.192 51.72V49.32H519.552V51.72H504.192ZM518.822 64.2V32.52H533.703V64.2H518.822ZM533.213 64.2V32.52H548.093V64.2H533.213ZM556.244 64.2V46.92H547.364V44.52H558.644V64.2H556.244ZM551.444 64.2V51.72H547.364V49.32H553.844V64.2H551.444ZM561.994 64.2V32.52H576.874V64.2H561.994ZM576.385 64.2V32.52H591.265V64.2H576.385ZM594.616 64.2V44.52H605.896V46.92H597.016V64.2H594.616ZM599.416 64.2V49.32H605.896V51.72H601.816V64.2H599.416ZM604.926 46.92V44.52H620.286V46.92H604.926ZM604.926 51.72V49.32H620.286V51.72H604.926ZM619.317 46.92V44.52H634.677V46.92H619.317ZM619.317 51.72V49.32H634.677V51.72H619.317ZM633.947 64.2V32.52H648.828V64.2H633.947ZM648.338 64.2V32.52H663.218V64.2H648.338ZM671.369 64.2V46.92H662.489V44.52H673.769V64.2H671.369ZM666.569 64.2V51.72H662.489V49.32H668.969V64.2H666.569ZM0.76 96.2V64.52H15.64V96.2H0.76ZM15.1506 96.2V64.52H30.0306V96.2H15.1506ZM29.5412 96.2V64.52H44.4213V96.2H29.5412ZM43.9319 96.2V64.52H58.8119V96.2H43.9319ZM58.3225 96.2V64.52H73.2025V96.2H58.3225ZM72.7131 96.2V64.52H87.5931V96.2H72.7131ZM87.1037 96.2V64.52H101.984V96.2H87.1037ZM110.134 96.2V78.92H101.254V76.52H112.534V96.2H110.134ZM105.334 96.2V83.72H101.254V81.32H107.734V96.2H105.334ZM115.885 96.2V64.52H130.765V96.2H115.885ZM130.276 96.2V64.52H145.156V96.2H130.276ZM144.666 96.2V64.52H159.546V96.2H144.666ZM159.057 96.2V64.52H173.937V96.2H159.057ZM173.447 96.2V64.52H188.328V96.2H173.447ZM187.838 96.2V64.52H202.718V96.2H187.838ZM202.229 96.2V64.52H217.109V96.2H202.229ZM225.259 96.2V64.52H227.659V96.2H225.259ZM220.459 96.2V64.52H222.859V96.2H220.459ZM231.01 96.2V64.52H245.89V96.2H231.01ZM245.401 96.2V64.52H260.281V96.2H245.401ZM268.431 96.2V64.52H270.831V96.2H268.431ZM263.631 96.2V64.52H266.031V96.2H263.631ZM274.182 96.2V64.52H289.062V96.2H274.182ZM288.572 96.2V64.52H303.453V96.2H288.572ZM302.963 96.2V64.52H317.843V96.2H302.963ZM317.354 96.2V64.52H332.234V96.2H317.354ZM331.744 96.2V64.52H346.624V96.2H331.744ZM346.135 96.2V64.52H361.015V96.2H346.135ZM364.366 96.2V76.52H375.646V78.92H366.766V96.2H364.366ZM369.166 96.2V81.32H375.646V83.72H371.566V96.2H369.166ZM374.676 83.72V81.32H383.556V64.52H385.956V83.72H374.676ZM374.676 78.92V76.52H378.756V64.52H381.156V78.92H374.676ZM446.869 96.2V64.52H461.749V96.2H446.869ZM461.26 96.2V64.52H476.14V96.2H461.26ZM475.651 96.2V64.52H490.531V96.2H475.651ZM490.041 96.2V64.52H504.921V96.2H490.041ZM504.432 96.2V64.52H519.312V96.2H504.432ZM518.822 96.2V64.52H533.703V96.2H518.822ZM537.053 96.2V76.52H548.333V78.92H539.453V96.2H537.053ZM541.853 96.2V81.32H548.333V83.72H544.253V96.2H541.853ZM547.364 83.72V81.32H556.244V64.52H558.644V83.72H547.364ZM547.364 78.92V76.52H551.444V64.52H553.844V78.92H547.364ZM561.994 96.2V64.52H576.874V96.2H561.994ZM576.385 96.2V64.52H591.265V96.2H576.385ZM590.776 96.2V64.52H605.656V96.2H590.776ZM605.166 96.2V64.52H620.046V96.2H605.166ZM619.557 96.2V64.52H634.437V96.2H619.557ZM633.947 96.2V64.52H648.828V96.2H633.947ZM648.338 96.2V64.52H663.218V96.2H648.338ZM671.369 96.2V64.52H673.769V96.2H671.369ZM666.569 96.2V64.52H668.969V96.2H666.569ZM4.6 115.72V96.52H7V113.32H15.88V115.72H4.6ZM9.4 110.92V96.52H11.8V108.52H15.88V110.92H9.4ZM14.9106 110.92V108.52H30.2706V110.92H14.9106ZM14.9106 115.72V113.32H30.2706V115.72H14.9106ZM29.3012 110.92V108.52H44.6613V110.92H29.3012ZM29.3012 115.72V113.32H44.6613V115.72H29.3012ZM43.6919 110.92V108.52H59.0519V110.92H43.6919ZM43.6919 115.72V113.32H59.0519V115.72H43.6919ZM58.0825 110.92V108.52H73.4425V110.92H58.0825ZM58.0825 115.72V113.32H73.4425V115.72H58.0825ZM72.7131 128.2V96.52H87.5931V128.2H72.7131ZM87.1037 128.2V96.52H101.984V128.2H87.1037ZM110.134 128.2V96.52H112.534V128.2H110.134ZM105.334 128.2V96.52H107.734V128.2H105.334ZM115.885 128.2V96.52H130.765V128.2H115.885ZM130.276 128.2V96.52H145.156V128.2H130.276ZM148.506 128.2V108.52H159.786V110.92H150.906V128.2H148.506ZM153.306 128.2V113.32H159.786V115.72H155.706V128.2H153.306ZM158.817 110.92V108.52H174.177V110.92H158.817ZM158.817 115.72V113.32H174.177V115.72H158.817ZM173.207 110.92V108.52H188.568V110.92H173.207ZM173.207 115.72V113.32H188.568V115.72H173.207ZM187.838 128.2V96.52H202.718V128.2H187.838ZM202.229 128.2V96.52H217.109V128.2H202.229ZM225.259 128.2V96.52H227.659V128.2H225.259ZM220.459 128.2V96.52H222.859V128.2H220.459ZM231.01 128.2V96.52H245.89V128.2H231.01ZM245.401 128.2V96.52H260.281V128.2H245.401ZM268.431 128.2V96.52H270.831V128.2H268.431ZM263.631 128.2V96.52H266.031V128.2H263.631ZM274.182 128.2V96.52H289.062V128.2H274.182ZM288.572 128.2V96.52H303.453V128.2H288.572ZM306.803 128.2V108.52H318.083V110.92H309.203V128.2H306.803ZM311.603 128.2V113.32H318.083V115.72H314.003V128.2H311.603ZM317.114 110.92V108.52H332.474V110.92H317.114ZM317.114 115.72V113.32H332.474V115.72H317.114ZM331.504 110.92V108.52H346.864V110.92H331.504ZM331.504 115.72V113.32H346.864V115.72H331.504ZM345.895 110.92V108.52H361.255V110.92H345.895ZM345.895 115.72V113.32H361.255V115.72H345.895ZM360.286 115.72V113.32H369.166V96.52H371.566V115.72H360.286ZM360.286 110.92V108.52H364.366V96.52H366.766V110.92H360.286ZM446.869 128.2V96.52H461.749V128.2H446.869ZM461.26 128.2V96.52H476.14V128.2H461.26ZM479.491 128.2V108.52H490.771V110.92H481.891V128.2H479.491ZM484.291 128.2V113.32H490.771V115.72H486.691V128.2H484.291ZM489.801 110.92V108.52H505.161V110.92H489.801ZM489.801 115.72V113.32H505.161V115.72H489.801ZM504.192 110.92V108.52H519.552V110.92H504.192ZM504.192 115.72V113.32H519.552V115.72H504.192ZM518.822 128.2V96.52H533.703V128.2H518.822ZM533.213 128.2V96.52H548.093V128.2H533.213ZM556.244 128.2V110.92H547.364V108.52H558.644V128.2H556.244ZM551.444 128.2V115.72H547.364V113.32H553.844V128.2H551.444ZM561.994 128.2V96.52H576.874V128.2H561.994ZM576.385 128.2V96.52H591.265V128.2H576.385ZM594.616 128.2V108.52H605.896V110.92H597.016V128.2H594.616ZM599.416 128.2V113.32H605.896V115.72H601.816V128.2H599.416ZM604.926 110.92V108.52H620.286V110.92H604.926ZM604.926 115.72V113.32H620.286V115.72H604.926ZM619.317 110.92V108.52H634.677V110.92H619.317ZM619.317 115.72V113.32H634.677V115.72H619.317ZM633.947 128.2V96.52H648.828V128.2H633.947ZM648.338 128.2V96.52H663.218V128.2H648.338ZM671.369 128.2V96.52H673.769V128.2H671.369ZM666.569 128.2V96.52H668.969V128.2H666.569ZM0.76 160.2V128.52H15.64V160.2H0.76ZM15.1506 160.2V128.52H30.0306V160.2H15.1506ZM29.5412 160.2V128.52H44.4213V160.2H29.5412ZM43.9319 160.2V128.52H58.8119V160.2H43.9319ZM58.3225 160.2V128.52H73.2025V160.2H58.3225ZM72.7131 160.2V128.52H87.5931V160.2H72.7131ZM87.1037 160.2V128.52H101.984V160.2H87.1037ZM110.134 160.2V128.52H112.534V160.2H110.134ZM105.334 160.2V128.52H107.734V160.2H105.334ZM115.885 160.2V128.52H130.765V160.2H115.885ZM130.276 160.2V128.52H145.156V160.2H130.276ZM153.306 160.2V128.52H155.706V160.2H153.306ZM148.506 160.2V128.52H150.906V160.2H148.506ZM187.838 160.2V128.52H202.718V160.2H187.838ZM202.229 160.2V128.52H217.109V160.2H202.229ZM225.259 160.2V128.52H227.659V160.2H225.259ZM220.459 160.2V128.52H222.859V160.2H220.459ZM231.01 160.2V128.52H245.89V160.2H231.01ZM245.401 160.2V128.52H260.281V160.2H245.401ZM268.431 160.2V128.52H270.831V160.2H268.431ZM263.631 160.2V128.52H266.031V160.2H263.631ZM274.182 160.2V128.52H289.062V160.2H274.182ZM288.572 160.2V128.52H303.453V160.2H288.572ZM311.603 160.2V128.52H314.003V160.2H311.603ZM306.803 160.2V128.52H309.203V160.2H306.803ZM446.869 160.2V128.52H461.749V160.2H446.869ZM461.26 160.2V128.52H476.14V160.2H461.26ZM475.651 160.2V128.52H490.531V160.2H475.651ZM490.041 160.2V128.52H504.921V160.2H490.041ZM504.432 160.2V128.52H519.312V160.2H504.432ZM518.822 160.2V128.52H533.703V160.2H518.822ZM537.053 160.2V140.52H548.333V142.92H539.453V160.2H537.053ZM541.853 160.2V145.32H548.333V147.72H544.253V160.2H541.853ZM547.364 147.72V145.32H556.244V128.52H558.644V147.72H547.364ZM547.364 142.92V140.52H551.444V128.52H553.844V142.92H547.364ZM561.994 160.2V128.52H576.874V160.2H561.994ZM576.385 160.2V128.52H591.265V160.2H576.385ZM599.416 160.2V128.52H601.816V160.2H599.416ZM594.616 160.2V128.52H597.016V160.2H594.616ZM633.947 160.2V128.52H648.828V160.2H633.947ZM648.338 160.2V128.52H663.218V160.2H648.338ZM671.369 160.2V128.52H673.769V160.2H671.369ZM666.569 160.2V128.52H668.969V160.2H666.569ZM4.6 179.72V160.52H7V177.32H15.88V179.72H4.6ZM9.4 174.92V160.52H11.8V172.52H15.88V174.92H9.4ZM14.9106 174.92V172.52H30.2706V174.92H14.9106ZM14.9106 179.72V177.32H30.2706V179.72H14.9106ZM29.3012 174.92V172.52H44.6613V174.92H29.3012ZM29.3012 179.72V177.32H44.6613V179.72H29.3012ZM43.6919 174.92V172.52H59.0519V174.92H43.6919ZM43.6919 179.72V177.32H59.0519V179.72H43.6919ZM58.0825 174.92V172.52H73.4425V174.92H58.0825ZM58.0825 179.72V177.32H73.4425V179.72H58.0825ZM72.4731 174.92V172.52H87.8331V174.92H72.4731ZM72.4731 179.72V177.32H87.8331V179.72H72.4731ZM86.8637 174.92V172.52H102.224V174.92H86.8637ZM86.8637 179.72V177.32H102.224V179.72H86.8637ZM101.254 179.72V177.32H110.134V160.52H112.534V179.72H101.254ZM101.254 174.92V172.52H105.334V160.52H107.734V174.92H101.254ZM119.725 179.72V160.52H122.125V177.32H131.005V179.72H119.725ZM124.525 174.92V160.52H126.925V172.52H131.005V174.92H124.525ZM130.036 174.92V172.52H145.396V174.92H130.036ZM130.036 179.72V177.32H145.396V179.72H130.036ZM144.426 179.72V177.32H153.306V160.52H155.706V179.72H144.426ZM144.426 174.92V172.52H148.506V160.52H150.906V174.92H144.426ZM191.678 179.72V160.52H194.078V177.32H202.958V179.72H191.678ZM196.478 174.92V160.52H198.878V172.52H202.958V174.92H196.478ZM201.989 174.92V172.52H217.349V174.92H201.989ZM201.989 179.72V177.32H217.349V179.72H201.989ZM216.379 179.72V177.32H225.259V160.52H227.659V179.72H216.379ZM216.379 174.92V172.52H220.459V160.52H222.859V174.92H216.379ZM234.85 179.72V160.52H237.25V177.32H246.13V179.72H234.85ZM239.65 174.92V160.52H242.05V172.52H246.13V174.92H239.65ZM245.161 174.92V172.52H260.521V174.92H245.161ZM245.161 179.72V177.32H260.521V179.72H245.161ZM259.551 179.72V177.32H268.431V160.52H270.831V179.72H259.551ZM259.551 174.92V172.52H263.631V160.52H266.031V174.92H259.551ZM278.022 179.72V160.52H280.422V177.32H289.302V179.72H278.022ZM282.822 174.92V160.52H285.222V172.52H289.302V174.92H282.822ZM288.332 174.92V172.52H303.693V174.92H288.332ZM288.332 179.72V177.32H303.693V179.72H288.332ZM302.723 179.72V177.32H311.603V160.52H314.003V179.72H302.723ZM302.723 174.92V172.52H306.803V160.52H309.203V174.92H302.723ZM450.709 179.72V160.52H453.109V177.32H461.989V179.72H450.709ZM455.509 174.92V160.52H457.909V172.52H461.989V174.92H455.509ZM461.02 174.92V172.52H476.38V174.92H461.02ZM461.02 179.72V177.32H476.38V179.72H461.02ZM475.411 174.92V172.52H490.771V174.92H475.411ZM475.411 179.72V177.32H490.771V179.72H475.411ZM489.801 174.92V172.52H505.161V174.92H489.801ZM489.801 179.72V177.32H505.161V179.72H489.801ZM504.192 174.92V172.52H519.552V174.92H504.192ZM504.192 179.72V177.32H519.552V179.72H504.192ZM518.582 174.92V172.52H533.943V174.92H518.582ZM518.582 179.72V177.32H533.943V179.72H518.582ZM532.973 179.72V177.32H541.853V160.52H544.253V179.72H532.973ZM532.973 174.92V172.52H537.053V160.52H539.453V174.92H532.973ZM565.834 179.72V160.52H568.234V177.32H577.114V179.72H565.834ZM570.634 174.92V160.52H573.034V172.52H577.114V174.92H570.634ZM576.145 174.92V172.52H591.505V174.92H576.145ZM576.145 179.72V177.32H591.505V179.72H576.145ZM590.536 179.72V177.32H599.416V160.52H601.816V179.72H590.536ZM590.536 174.92V172.52H594.616V160.52H597.016V174.92H590.536ZM637.788 179.72V160.52H640.188V177.32H649.068V179.72H637.788ZM642.588 174.92V160.52H644.988V172.52H649.068V174.92H642.588ZM648.098 174.92V172.52H663.458V174.92H648.098ZM648.098 179.72V177.32H663.458V179.72H648.098ZM662.489 179.72V177.32H671.369V160.52H673.769V179.72H662.489ZM662.489 174.92V172.52H666.569V160.52H668.969V174.92H662.489Z" fill="black"/>
</svg>
