<svg width="796" height="150" viewBox="0 0 796 150" fill="none" xmlns="http://www.w3.org/2000/svg">
<path d="M67.12 139.27L0 112.02V122.31L67.12 149.56V139.27Z" fill="white"/>
<path d="M69.79 138.91V149.21L177.46 42.0501V31.6401L69.79 138.91Z" fill="white"/>
<path d="M135.83 68.16L88.0497 20.57L85.2197 23.39L133.67 71.66L177.46 28.03L108.7 0L90.3997 18.23L135.83 68.16Z" fill="white"/>
<path d="M108.97 96.2599L122.08 83.2099L73.6295 34.9399L60.5195 47.9899L108.97 96.2599Z" fill="white"/>
<path d="M38.92 75.4L84.42 120.73L89.64 115.52L41.19 67.25L0 108.29L68.76 136.33L82.19 122.95L38.92 75.4Z" fill="white"/>
<path d="M268.73 39.5801C268.31 40.2901 267.85 40.8201 267.35 41.1701C266.86 41.5201 266.25 41.7001 265.55 41.7001C264.75 41.7001 263.81 41.3001 262.72 40.5001C261.64 39.7001 260.28 38.8201 258.66 37.8501C257.04 36.8901 255.08 36.0001 252.79 35.2001C250.5 34.4001 247.74 34.0001 244.49 34.0001C241.43 34.0001 238.73 34.4101 236.4 35.2401C234.07 36.0701 232.11 37.1801 230.53 38.6001C228.95 40.0101 227.76 41.6701 226.96 43.5801C226.16 45.4901 225.76 47.5501 225.76 49.7601C225.76 52.5901 226.45 54.9301 227.84 56.7901C229.23 58.6501 231.07 60.2401 233.35 61.5601C235.63 62.8801 238.23 64.0201 241.12 64.9901C244.02 65.9601 246.99 66.9601 250.02 67.9901C253.06 69.0301 256.03 70.1901 258.92 71.4901C261.82 72.7901 264.41 74.4201 266.69 76.4001C268.97 78.3801 270.81 80.8101 272.2 83.6801C273.59 86.5501 274.28 90.0901 274.28 94.2801C274.28 98.7101 273.53 102.87 272.02 106.75C270.51 110.64 268.31 114.02 265.41 116.89C262.51 119.76 258.95 122.03 254.74 123.67C250.52 125.32 245.73 126.14 240.36 126.14C233.76 126.14 227.78 124.95 222.41 122.57C217.04 120.19 212.45 116.98 208.63 112.92L212.59 106.42C212.97 105.9 213.43 105.47 213.97 105.11C214.51 104.76 215.11 104.58 215.77 104.58C216.38 104.58 217.08 104.83 217.85 105.32C218.63 105.81 219.51 106.44 220.5 107.19C221.49 107.94 222.62 108.77 223.89 109.66C225.16 110.56 226.61 111.38 228.24 112.13C229.86 112.88 231.71 113.51 233.79 114C235.86 114.49 238.19 114.74 240.79 114.74C244.04 114.74 246.94 114.29 249.48 113.4C252.02 112.51 254.18 111.24 255.95 109.62C257.72 108 259.07 106.05 260.01 103.79C260.95 101.53 261.42 99.0101 261.42 96.2301C261.42 93.1701 260.72 90.6601 259.34 88.7001C257.95 86.7501 256.12 85.1101 253.86 83.7901C251.6 82.4701 249.01 81.3501 246.09 80.4301C243.17 79.5101 240.2 78.5701 237.19 77.6001C234.17 76.6301 231.21 75.5201 228.29 74.2401C225.37 72.9701 222.78 71.3201 220.52 69.2901C218.26 67.2701 216.43 64.7301 215.04 61.6901C213.65 58.6501 212.96 54.9001 212.96 50.4201C212.96 46.8401 213.65 43.3801 215.04 40.0301C216.43 36.6901 218.46 33.7201 221.12 31.1301C223.78 28.5401 227.06 26.4701 230.94 24.9101C234.82 23.3501 239.29 22.5801 244.33 22.5801C249.98 22.5801 255.13 23.4801 259.77 25.2701C264.41 27.0601 268.5 29.6501 272.03 33.0401L268.71 39.5401L268.73 39.5801Z" fill="white"/>
<path d="M305.98 30.9499C305.98 32.1799 305.73 33.3199 305.24 34.3799C304.75 35.4399 304.09 36.3799 303.26 37.2099C302.43 38.0399 301.47 38.6799 300.36 39.1499C299.25 39.6199 298.09 39.8599 296.86 39.8599C295.63 39.8599 294.49 39.6199 293.43 39.1499C292.37 38.6799 291.44 38.0299 290.64 37.2099C289.84 36.3899 289.2 35.4399 288.73 34.3799C288.26 33.3199 288.02 32.1799 288.02 30.9499C288.02 29.7199 288.26 28.5599 288.73 27.4499C289.2 26.3399 289.84 25.3799 290.64 24.5499C291.44 23.7299 292.37 23.0799 293.43 22.6099C294.49 22.1399 295.63 21.8999 296.86 21.8999C298.09 21.8999 299.25 22.1399 300.36 22.6099C301.47 23.0799 302.43 23.7299 303.26 24.5499C304.08 25.3699 304.74 26.3399 305.24 27.4499C305.73 28.5599 305.98 29.7199 305.98 30.9499ZM303.29 53.4299V125.02H290.71V53.4299H303.29Z" fill="white"/>
<path d="M336.93 20.9199V125.01H324.35V20.9199H336.93Z" fill="white"/>
<path d="M418.62 53.4297L389.43 125.02H378.12L348.93 53.4297H359.18C360.22 53.4297 361.06 53.6897 361.72 54.2097C362.38 54.7297 362.83 55.3397 363.06 56.0497L381.22 102.13C381.79 103.87 382.28 105.57 382.7 107.22C383.12 108.87 383.52 110.52 383.9 112.17C384.28 110.52 384.68 108.87 385.1 107.22C385.52 105.57 386.04 103.88 386.65 102.13L405.02 56.0497C405.3 55.2997 405.77 54.6697 406.43 54.1797C407.09 53.6897 407.87 53.4397 408.76 53.4397H418.58L418.62 53.4297Z" fill="white"/>
<path d="M486.32 114.98C484.77 116.86 482.9 118.5 480.74 119.89C478.57 121.28 476.25 122.42 473.78 123.32C471.31 124.22 468.75 124.89 466.11 125.33C463.47 125.78 460.86 126 458.27 126C453.32 126 448.77 125.16 444.6 123.49C440.43 121.82 436.83 119.37 433.79 116.14C430.75 112.91 428.38 108.92 426.69 104.16C424.99 99.4 424.15 93.94 424.15 87.76C424.15 82.77 424.92 78.1 426.45 73.77C427.98 69.44 430.18 65.68 433.06 62.5C435.93 59.32 439.44 56.82 443.59 55.01C447.74 53.2 452.4 52.29 457.58 52.29C461.87 52.29 465.84 53.01 469.49 54.45C473.14 55.89 476.3 57.96 478.96 60.67C481.62 63.38 483.71 66.72 485.21 70.7C486.72 74.68 487.47 79.22 487.47 84.3C487.47 86.28 487.26 87.6 486.83 88.26C486.41 88.92 485.6 89.25 484.43 89.25H436.59C436.73 93.77 437.36 97.71 438.46 101.05C439.57 104.4 441.11 107.19 443.09 109.42C445.07 111.66 447.42 113.33 450.16 114.44C452.89 115.55 455.95 116.1 459.35 116.1C462.51 116.1 465.23 115.74 467.51 115C469.79 114.27 471.76 113.48 473.41 112.63C475.06 111.78 476.44 110.99 477.54 110.26C478.65 109.53 479.6 109.16 480.4 109.16C481.44 109.16 482.24 109.56 482.8 110.36L486.33 114.95L486.32 114.98ZM476.14 81.41C476.14 78.49 475.73 75.82 474.9 73.39C474.07 70.96 472.87 68.87 471.3 67.1C469.72 65.33 467.8 63.97 465.54 63C463.28 62.04 460.71 61.55 457.84 61.55C451.81 61.55 447.04 63.31 443.53 66.81C440.02 70.31 437.84 75.18 436.99 81.4H476.14V81.41Z" fill="white"/>
<path d="M514.799 67.7702C517.059 62.8702 519.839 59.0402 523.139 56.2902C526.439 53.5302 530.469 52.1602 535.219 52.1602C536.729 52.1602 538.179 52.3302 539.569 52.6602C540.959 52.9902 542.199 53.5102 543.279 54.2102L542.359 63.6102C542.079 64.7902 541.369 65.3802 540.239 65.3802C539.579 65.3802 538.609 65.2402 537.339 64.9602C536.069 64.6802 534.629 64.5402 533.029 64.5402C530.769 64.5402 528.749 64.8702 526.989 65.5302C525.219 66.1902 523.639 67.1702 522.259 68.4602C520.869 69.7602 519.619 71.3602 518.509 73.2702C517.399 75.1802 516.399 77.3602 515.509 79.8102V125.04H502.859V53.4502H510.069C511.439 53.4502 512.379 53.7102 512.899 54.2302C513.419 54.7502 513.769 55.6402 513.959 56.9202L514.809 67.8002L514.799 67.7702Z" fill="white"/>
<path d="M546.6 117.24C546.6 116.02 546.82 114.86 547.27 113.78C547.72 112.7 548.33 111.76 549.11 110.95C549.89 110.15 550.82 109.51 551.9 109.04C552.98 108.57 554.14 108.33 555.36 108.33C556.58 108.33 557.74 108.57 558.82 109.04C559.9 109.51 560.85 110.15 561.65 110.95C562.45 111.75 563.09 112.69 563.56 113.78C564.03 114.86 564.27 116.02 564.27 117.24C564.27 118.46 564.03 119.68 563.56 120.74C563.09 121.8 562.45 122.73 561.65 123.53C560.85 124.33 559.91 124.96 558.82 125.4C557.74 125.85 556.58 126.07 555.36 126.07C554.14 126.07 552.98 125.85 551.9 125.4C550.82 124.95 549.89 124.33 549.11 123.53C548.33 122.73 547.72 121.8 547.27 120.74C546.82 119.68 546.6 118.51 546.6 117.24Z" fill="white"/>
<path d="M641.29 20.9199V125.01H633.8C632.01 125.01 630.88 124.14 630.41 122.4L629.28 113.71C626.22 117.38 622.73 120.35 618.82 122.61C614.91 124.87 610.39 126 605.25 126C601.15 126 597.43 125.21 594.08 123.63C590.73 122.05 587.88 119.73 585.53 116.67C583.17 113.61 581.36 109.79 580.09 105.22C578.82 100.65 578.18 95.3999 578.18 89.4599C578.18 84.1799 578.89 79.2699 580.3 74.7299C581.71 70.1799 583.74 66.2399 586.38 62.8899C589.02 59.5499 592.26 56.9199 596.1 55.0099C599.94 53.0999 604.26 52.1499 609.07 52.1499C613.45 52.1499 617.21 52.8899 620.34 54.3799C623.47 55.8599 626.26 57.9299 628.71 60.5599V20.9199H641.29ZM628.71 70.4599C626.35 67.2999 623.81 65.0999 621.08 63.8499C618.35 62.5999 615.29 61.9799 611.89 61.9799C605.25 61.9799 600.14 64.3599 596.56 69.1199C592.98 73.8799 591.19 80.6599 591.19 89.4699C591.19 94.1299 591.59 98.1299 592.39 101.45C593.19 104.77 594.37 107.5 595.92 109.65C597.47 111.79 599.38 113.36 601.64 114.35C603.9 115.34 606.47 115.83 609.34 115.83C613.49 115.83 617.1 114.89 620.19 113C623.27 111.12 626.11 108.45 628.71 105.01V70.4499V70.4599Z" fill="white"/>
<path d="M719.31 114.98C717.76 116.86 715.89 118.5 713.73 119.89C711.56 121.28 709.24 122.42 706.77 123.32C704.3 124.22 701.74 124.89 699.1 125.33C696.46 125.78 693.85 126 691.26 126C686.31 126 681.76 125.16 677.59 123.49C673.42 121.82 669.82 119.37 666.78 116.14C663.74 112.91 661.37 108.92 659.68 104.16C657.98 99.4 657.14 93.94 657.14 87.76C657.14 82.77 657.91 78.1 659.44 73.77C660.97 69.44 663.17 65.68 666.05 62.5C668.92 59.32 672.43 56.82 676.58 55.01C680.73 53.2 685.39 52.29 690.57 52.29C694.86 52.29 698.83 53.01 702.48 54.45C706.13 55.89 709.29 57.96 711.95 60.67C714.61 63.38 716.7 66.72 718.2 70.7C719.71 74.68 720.46 79.22 720.46 84.3C720.46 86.28 720.25 87.6 719.82 88.26C719.4 88.92 718.59 89.25 717.42 89.25H669.58C669.72 93.77 670.35 97.71 671.45 101.05C672.56 104.4 674.1 107.19 676.08 109.42C678.06 111.66 680.41 113.33 683.15 114.44C685.88 115.55 688.94 116.1 692.34 116.1C695.5 116.1 698.22 115.74 700.5 115C702.78 114.27 704.75 113.48 706.4 112.63C708.05 111.78 709.43 110.99 710.53 110.26C711.64 109.53 712.59 109.16 713.39 109.16C714.43 109.16 715.23 109.56 715.79 110.36L719.32 114.95L719.31 114.98ZM709.13 81.41C709.13 78.49 708.72 75.82 707.89 73.39C707.06 70.96 705.86 68.87 704.29 67.1C702.71 65.33 700.79 63.97 698.53 63C696.27 62.04 693.7 61.55 690.83 61.55C684.8 61.55 680.03 63.31 676.52 66.81C673.01 70.31 670.83 75.18 669.98 81.4H709.13V81.41Z" fill="white"/>
<path d="M795.629 53.4297L766.439 125.02H755.129L725.939 53.4297H736.189C737.229 53.4297 738.069 53.6897 738.729 54.2097C739.389 54.7297 739.839 55.3397 740.069 56.0497L758.229 102.13C758.799 103.87 759.289 105.57 759.709 107.22C760.129 108.87 760.529 110.52 760.909 112.17C761.289 110.52 761.689 108.87 762.109 107.22C762.529 105.57 763.049 103.88 763.659 102.13L782.029 56.0497C782.309 55.2997 782.779 54.6697 783.439 54.1797C784.099 53.6897 784.879 53.4397 785.769 53.4397H795.589L795.629 53.4297Z" fill="white"/>
</svg>
